<svg xmlns="http://www.w3.org/2000/svg" width="1200" height="675" viewBox="0 0 1200 675" fill="none">
  <defs>
    <linearGradient id="bg" x1="0" y1="0" x2="1200" y2="675" gradientUnits="userSpaceOnUse">
      <stop stop-color="#0A0D14"/>
      <stop offset="1" stop-color="#171C2B"/>
    </linearGradient>
    <linearGradient id="accent" x1="0" y1="0" x2="1" y2="1">
      <stop stop-color="#FF7A32"/>
      <stop offset="1" stop-color="#FFB083"/>
    </linearGradient>
  </defs>
  <rect width="1200" height="675" fill="url(#bg)"/>
  <rect x="64" y="56" width="1072" height="68" rx="14" fill="#0E1424" stroke="#27314D"/>
  <rect x="82" y="78" width="230" height="24" rx="8" fill="#101A30"/>
  <text x="95" y="95" fill="#F4F7FF" font-family="Arial, sans-serif" font-size="22" font-weight="700">KENITRA</text>
  <text x="196" y="95" fill="#FF7A32" font-family="Arial, sans-serif" font-size="22" font-weight="700">FASHION</text>
  <rect x="882" y="74" width="228" height="32" rx="8" fill="url(#accent)"/>
  <text x="921" y="95" fill="#0D111C" font-family="Arial, sans-serif" font-size="16" font-weight="700">Commande via WhatsApp</text>
  <rect x="64" y="152" width="1072" height="467" rx="20" fill="#0E1322" stroke="#27314D"/>
  <rect x="64" y="152" width="520" height="467" rx="20" fill="url(#accent)" fill-opacity="0.08"/>
  <text x="116" y="274" fill="#F2F6FF" font-family="Arial, sans-serif" font-size="64" font-weight="700">Kenitra Fashion</text>
  <text x="116" y="334" fill="#FFB083" font-family="Arial, sans-serif" font-size="52" font-weight="700">Live Project</text>
  <text x="116" y="386" fill="#A5B2CE" font-family="Arial, sans-serif" font-size="28">Modern e-commerce style landing page</text>
  <text x="116" y="430" fill="#A5B2CE" font-family="Arial, sans-serif" font-size="28">with strong visual identity and WhatsApp CTA</text>
  <rect x="116" y="474" width="350" height="58" rx="12" fill="url(#accent)"/>
  <text x="176" y="512" fill="#0D111C" font-family="Arial, sans-serif" font-size="28" font-weight="700">kenitra-fashion.vercel.app</text>
  <rect x="640" y="198" width="430" height="370" rx="16" fill="#0B101C" stroke="#2D3859"/>
  <circle cx="855" cy="360" r="120" fill="#121A2E"/>
  <path d="M855 265L900 355L855 455L810 355L855 265Z" fill="#1E2945"/>
  <path d="M855 288L883 355L855 422L827 355L855 288Z" fill="#2B3D66"/>
  <text x="66" y="649" fill="#7C8AAE" font-family="Arial, sans-serif" font-size="20">Replace this placeholder with your real screenshot at the same path.</text>
</svg>
